# xmcd CD database file generated by OrangeCD 6.4
#
# Track frame offsets:
#	150
#	24782
#	43134
#	59234
#	78765
#	95272
#	111294
#	132515
#	155330
#	176821
#	191516
#	206773
#
# Disc length: 3162 seconds
#
# Revision: 0
# Processed by: cddbd v1.5.2PL0 Copyright (c) Steve Scherf et al.
# Submitted via: OrangeCD 6.4
#
DISCID=a30c580c
DTITLE=Debbie Bond - Hearts Are Wild
DYEAR=2011
DGENRE=
TTITLE0=Dead Zone
TTITLE1=Hearts Are Wild
TTITLE2=My Time
TTITLE3=Drama Mama
TTITLE4=You're The Kind of Trouble
TTITLE5=Still Missing You
TTITLE6=Rick's Boogie
TTITLE7=Baby I Love You
TTITLE8=Nothin' But The Blues
TTITLE9=Fallin'
TTITLE10=I Like It Like That
TTITLE11=Since I Found Love
EXTD=
EXTT0=
EXTT1=
EXTT2=
EXTT3=
EXTT4=
EXTT5=
EXTT6=
EXTT7=
EXTT8=
EXTT9=
EXTT10=
EXTT11=
PLAYORDER=
